<svg xmlns="http://www.w3.org/2000/svg" viewBox="0 0 116 148" width="116" height="148" fill="none"><circle cx="10" cy="10" r="1" fill="#dbb678" fill-opacity="0.4"/><circle cx="26" cy="10" r="1" fill="#dbb678" fill-opacity="0.4"/><circle cx="42" cy="10" r="1" fill="#dbb678" fill-opacity="0.4"/><circle cx="58" cy="10" r="1" fill="#dbb678" fill-opacity="0.4"/><circle cx="74" cy="10" r="1" fill="#dbb678" fill-opacity="0.4"/><circle cx="90" cy="10" r="1" fill="#dbb678" fill-opacity="0.4"/><circle cx="106" cy="10" r="1" fill="#dbb678" fill-opacity="0.4"/><circle cx="10" cy="26" r="1" fill="#dbb678" fill-opacity="0.4"/><circle cx="26" cy="26" r="2.4" fill="#f6e2b3" fill-opacity="1"/><circle cx="42" cy="26" r="1" fill="#dbb678" fill-opacity="0.4"/><circle cx="58" cy="26" r="1" fill="#dbb678" fill-opacity="0.4"/><circle cx="74" cy="26" r="1" fill="#dbb678" fill-opacity="0.4"/><circle cx="90" cy="26" r="1" fill="#dbb678" fill-opacity="0.4"/><circle cx="106" cy="26" r="1" fill="#dbb678" fill-opacity="0.4"/><circle cx="10" cy="42" r="1" fill="#dbb678" fill-opacity="0.4"/><circle cx="26" cy="42" r="1" fill="#dbb678" fill-opacity="0.4"/><circle cx="42" cy="42" r="1" fill="#dbb678" fill-opacity="0.4"/><circle cx="58" cy="42" r="1" fill="#dbb678" fill-opacity="0.4"/><circle cx="74" cy="42" r="1" fill="#dbb678" fill-opacity="0.4"/><circle cx="90" cy="42" r="1" fill="#dbb678" fill-opacity="0.4"/><circle cx="106" cy="42" r="1" fill="#dbb678" fill-opacity="0.4"/><circle cx="10" cy="58" r="1" fill="#dbb678" fill-opacity="0.4"/><circle cx="26" cy="58" r="1" fill="#dbb678" fill-opacity="0.4"/><circle cx="42" cy="58" r="1" fill="#dbb678" fill-opacity="0.4"/><circle cx="58" cy="58" r="1" fill="#dbb678" fill-opacity="0.4"/><circle cx="74" cy="58" r="1" fill="#dbb678" fill-opacity="0.4"/><circle cx="90" cy="58" r="1" fill="#dbb678" fill-opacity="0.4"/><circle cx="106" cy="58" r="1" fill="#dbb678" fill-opacity="0.4"/><circle cx="10" cy="74" r="1" fill="#dbb678" fill-opacity="0.4"/><circle cx="26" cy="74" r="1" fill="#dbb678" fill-opacity="0.4"/><circle cx="42" cy="74" r="1" fill="#dbb678" fill-opacity="0.4"/><circle cx="58" cy="74" r="1" fill="#dbb678" fill-opacity="0.4"/><circle cx="74" cy="74" r="1" fill="#dbb678" fill-opacity="0.4"/><circle cx="90" cy="74" r="2.4" fill="#f6e2b3" fill-opacity="1"/><circle cx="106" cy="74" r="1" fill="#dbb678" fill-opacity="0.4"/><circle cx="10" cy="90" r="1" fill="#dbb678" fill-opacity="0.4"/><circle cx="26" cy="90" r="1" fill="#dbb678" fill-opacity="0.4"/><circle cx="42" cy="90" r="1" fill="#dbb678" fill-opacity="0.4"/><circle cx="58" cy="90" r="1" fill="#dbb678" fill-opacity="0.4"/><circle cx="74" cy="90" r="1" fill="#dbb678" fill-opacity="0.4"/><circle cx="90" cy="90" r="1" fill="#dbb678" fill-opacity="0.4"/><circle cx="106" cy="90" r="1" fill="#dbb678" fill-opacity="0.4"/><circle cx="10" cy="106" r="1" fill="#dbb678" fill-opacity="0.4"/><circle cx="26" cy="106" r="1" fill="#dbb678" fill-opacity="0.4"/><circle cx="42" cy="106" r="1" fill="#dbb678" fill-opacity="0.4"/><circle cx="58" cy="106" r="1" fill="#dbb678" fill-opacity="0.4"/><circle cx="74" cy="106" r="1" fill="#dbb678" fill-opacity="0.4"/><circle cx="90" cy="106" r="1" fill="#dbb678" fill-opacity="0.4"/><circle cx="106" cy="106" r="1" fill="#dbb678" fill-opacity="0.4"/><circle cx="10" cy="122" r="1" fill="#dbb678" fill-opacity="0.4"/><circle cx="26" cy="122" r="1" fill="#dbb678" fill-opacity="0.4"/><circle cx="42" cy="122" r="1" fill="#dbb678" fill-opacity="0.4"/><circle cx="58" cy="122" r="1" fill="#dbb678" fill-opacity="0.4"/><circle cx="74" cy="122" r="1" fill="#dbb678" fill-opacity="0.4"/><circle cx="90" cy="122" r="1" fill="#dbb678" fill-opacity="0.4"/><circle cx="106" cy="122" r="1" fill="#dbb678" fill-opacity="0.4"/><circle cx="10" cy="138" r="1" fill="#dbb678" fill-opacity="0.4"/><circle cx="26" cy="138" r="1" fill="#dbb678" fill-opacity="0.4"/><circle cx="42" cy="138" r="1" fill="#dbb678" fill-opacity="0.4"/><circle cx="58" cy="138" r="1" fill="#dbb678" fill-opacity="0.4"/><circle cx="74" cy="138" r="1" fill="#dbb678" fill-opacity="0.4"/><circle cx="90" cy="138" r="1" fill="#dbb678" fill-opacity="0.4"/><circle cx="106" cy="138" r="1" fill="#dbb678" fill-opacity="0.4"/></svg>
